<?xml version="1.0" encoding="utf-8"?>
<!-- Generator: Adobe Illustrator 16.0.3, SVG Export Plug-In . SVG Version: 6.00 Build 0)  -->
<!DOCTYPE svg PUBLIC "-//W3C//DTD SVG 1.1//EN" "http://www.w3.org/Graphics/SVG/1.1/DTD/svg11.dtd">
<svg version="1.1" id="Ebene_1" xmlns="http://www.w3.org/2000/svg" xmlns:xlink="http://www.w3.org/1999/xlink" x="0px" y="0px"
	 width="700px" height="700px" viewBox="0 0 700 700" enable-background="new 0 0 700 700" xml:space="preserve">
<path fill="#FF4858" d="M429.713,85.943c9.83-9.832,25.81-9.832,35.642,0c9.831,9.831,9.831,25.603,0,35.435l-71.282,71.281
	c-9.831,9.831-25.603,9.831-35.434,0c-9.832-9.831-9.832-25.809,0-35.641l71.08-71.08L429.713,85.943z M278.342,246.127
	l397.381,136.829c13.111,4.504,20.076,18.846,15.565,31.953c-2.458,7.171-7.986,12.497-14.542,15.156l-175.545,71.282
	l-71.08,175.544c-5.325,12.904-19.869,19.254-32.772,13.926c-7.171-2.866-12.084-8.4-14.342-15.157L246.178,278.279
	c-4.505-13.313,2.661-27.655,15.772-32.159c5.533-1.844,11.267-1.638,16.386,0L278.342,246.127z M157.08,358.581
	c9.831-9.831,25.81-9.831,35.641,0c9.832,9.832,9.832,25.604,0,35.436l-71.281,71.282c-9.832,9.831-25.604,9.831-35.435,0
	c-9.832-9.832-9.831-25.81,0-35.642l71.08-71.08L157.08,358.581z M300.87,133.269c0,13.726-11.268,24.989-25.195,24.989
	s-25.195-11.267-25.195-24.989V32.489c0-13.927,11.267-25.195,25.195-25.195s25.195,11.267,25.195,25.195V133.269z M133.108,250.435
	c13.927,0,25.195,11.267,25.195,25.195c0,13.928-11.267,25.195-25.195,25.195H32.534c-13.926,0-25.195-11.267-25.195-25.195
	c0-13.928,11.267-25.195,25.195-25.195H133.108z M192.714,157.031c9.832,9.832,9.832,25.81,0,35.642
	c-9.831,9.832-25.81,9.832-35.642,0l-71.08-71.281c-9.831-9.832-9.831-25.604,0-35.435c9.832-9.831,25.604-9.831,35.436,0
	l71.282,71.08L192.714,157.031z"/>
</svg>
