<?xml version="1.0" encoding="utf-8"?>
<!-- Generator: Adobe Illustrator 16.0.3, SVG Export Plug-In . SVG Version: 6.00 Build 0)  -->
<!DOCTYPE svg PUBLIC "-//W3C//DTD SVG 1.1//EN" "http://www.w3.org/Graphics/SVG/1.1/DTD/svg11.dtd">
<svg version="1.1" id="Ebene_1" xmlns="http://www.w3.org/2000/svg" xmlns:xlink="http://www.w3.org/1999/xlink" x="0px" y="0px"
	 width="700px" height="700px" viewBox="0 0 700 700" enable-background="new 0 0 700 700" xml:space="preserve">
<path fill="#FF4858" d="M684.244,69.263v601.639c0,3.545-1.408,6.947-3.915,9.454s-5.909,3.916-9.455,3.916H29.126
	c-7.383,0-13.37-5.987-13.37-13.37V69.263c0-7.383,5.986-13.37,13.37-13.37h181.692l-17.381-17.249
	c-5.247-5.241-5.247-13.74,0-18.98c5.24-5.246,13.74-5.246,18.98,0l40.109,40.109c1.081,1.17,1.94,2.531,2.543,4.011
	c0.078,0.442,0.078,0.89,0,1.337c0.137,1.11,0.137,2.232,0,3.343v0.8c-0.006,1.42-0.281,2.823-0.8,4.142
	c-0.555,1.504-1.421,2.871-2.543,4.011l-40.109,40.109c-2.513,2.531-5.927,3.958-9.49,3.958c-3.569,0-6.983-1.427-9.496-3.958
	c-2.531-2.507-3.951-5.927-3.951-9.49c0-3.563,1.42-6.983,3.951-9.49l18.185-15.913H42.496v574.899h615.007V82.632H336.629
	c-7.383,0-13.37-5.986-13.37-13.37s5.987-13.37,13.37-13.37h334.244c3.545,0,6.947,1.409,9.454,3.916s3.915,5.909,3.915,9.455
	H684.244z M216.302,350.028v-26.74h-13.37v26.74c0,3.544-1.409,6.947-3.916,9.454s-5.909,3.915-9.454,3.915h-26.74v13.37h26.74
	c3.545,0,6.947,1.408,9.454,3.915s3.916,5.909,3.916,9.455v26.739h13.37v-26.739c0-7.384,5.987-13.37,13.37-13.37h26.74v-13.37
	h-26.74C222.289,363.396,216.302,357.41,216.302,350.028z M216.302,350.028v-26.74h-13.37v26.74c0,3.544-1.409,6.947-3.916,9.454
	s-5.909,3.915-9.454,3.915h-26.74v13.37h26.74c3.545,0,6.947,1.408,9.454,3.915s3.916,5.909,3.916,9.455v26.739h13.37v-26.739
	c0-7.384,5.987-13.37,13.37-13.37h26.74v-13.37h-26.74C222.289,363.396,216.302,357.41,216.302,350.028z M630.765,370.082
	c-0.035,37.22-14.838,72.906-41.155,99.229c-26.321,26.315-62.008,41.118-99.227,41.153h-66.849
	c-12.409,0-24.311-4.93-33.091-13.704c-8.773-8.779-13.704-20.681-13.704-33.09V450.3c0-11.077-8.977-20.055-20.055-20.055h-13.37
	c-11.078,0-20.055,8.978-20.055,20.055v13.37c0,12.409-4.93,24.311-13.704,33.09c-8.78,8.774-20.682,13.704-33.09,13.704h-66.849
	c-50.155,0-96.495-26.757-121.574-70.191c-25.074-43.434-25.074-96.948,0-140.382c25.079-43.435,71.419-70.192,121.574-70.192
	h280.765c37.22,0.036,72.906,14.838,99.229,41.155C615.927,297.175,630.728,332.861,630.765,370.082L630.765,370.082z
	 M283.152,350.028c0-3.545-1.409-6.948-3.916-9.455s-5.909-3.916-9.455-3.916h-26.739v-26.739c0-3.545-1.409-6.948-3.916-9.455
	s-5.909-3.915-9.455-3.915h-40.109c-7.383,0-13.37,5.986-13.37,13.37v26.739h-26.739c-7.383,0-13.37,5.987-13.37,13.37v40.109
	c0,3.545,1.408,6.947,3.915,9.454s5.909,3.915,9.455,3.915h26.739v26.739c0,3.546,1.409,6.948,3.916,9.455s5.909,3.915,9.455,3.915
	h40.109c3.545,0,6.948-1.408,9.455-3.915s3.916-5.909,3.916-9.455v-26.739h26.739c3.545,0,6.948-1.408,9.455-3.915
	c2.505-2.507,3.916-5.909,3.916-9.454V350.028z M470.328,336.658c0,3.545,1.408,6.948,3.915,9.455s5.909,3.916,9.454,3.916h13.37
	c3.545,0,6.947-1.409,9.454-3.916c2.506-2.507,3.916-5.909,3.916-9.455v-13.37c0-3.545-1.409-6.947-3.916-9.454
	s-5.909-3.916-9.454-3.916h-13.37c-7.383,0-13.369,5.986-13.369,13.37V336.658z M470.328,376.767v-13.37
	c0-3.545-1.409-6.947-3.916-9.454s-5.908-3.915-9.454-3.915h-13.37c-7.383,0-13.369,5.986-13.369,13.369v13.37
	c0,3.545,1.408,6.947,3.915,9.454s5.909,3.916,9.454,3.916h13.37c3.546,0,6.947-1.409,9.454-3.916
	C468.918,383.714,470.328,380.312,470.328,376.767z M510.438,403.506c0-3.545-1.409-6.947-3.916-9.454s-5.909-3.915-9.454-3.915
	h-13.37c-7.383,0-13.369,5.986-13.369,13.369v13.37c0,3.545,1.408,6.947,3.915,9.454s5.909,3.915,9.454,3.915h13.37
	c3.545,0,6.947-1.408,9.454-3.915c2.506-2.507,3.916-5.909,3.916-9.454V403.506z M550.547,363.396c0-3.545-1.409-6.947-3.916-9.454
	s-5.909-3.915-9.454-3.915h-13.37c-7.383,0-13.369,5.986-13.369,13.369v13.37c0,3.545,1.408,6.947,3.915,9.454
	s5.909,3.916,9.454,3.916h13.37c3.545,0,6.947-1.409,9.454-3.916c2.506-2.507,3.916-5.909,3.916-9.454V363.396z"/>
</svg>
